<mxfile host="app.diagrams.net" modified="2023-07-07T10:07:22.252Z" agent="Mozilla/5.0 (Windows NT 10.0; Win64; x64) AppleWebKit/537.36 (KHTML, like Gecko) Chrome/114.0.0.0 Safari/537.36 Edg/114.0.1823.67" etag="FQRh9l9xo2qQqBgyJXyc" version="21.6.1" type="github">
  <diagram name="Page-1" id="6JYRjCadyEY4bwgdQMWB">
    <mxGraphModel dx="1985" dy="4002" grid="1" gridSize="10" guides="1" tooltips="1" connect="1" arrows="1" fold="1" page="1" pageScale="1" pageWidth="827" pageHeight="1169" math="0" shadow="0">
      <root>
        <mxCell id="0" />
        <mxCell id="1" parent="0" />
        <mxCell id="GJ76FNxvmAw6E44nZwrg-1" value="Service après vente" style="swimlane;startSize=30;html=1;whiteSpace=wrap;childLayout=stackLayout;resizeParent=1;dropTarget=0;horizontalStack=0;spacing=0;strokeColor=#5e5e5e;strokeOpacity=100;rounded=1;absoluteArcSize=1;arcSize=9;horizontal=0;strokeWidth=2.3;container=1;pointerEvents=0;collapsible=0;recursiveResize=0;fontSize=16.7;fontColor=#333333;align=center;" vertex="1" parent="1">
          <mxGeometry x="90" y="-240" width="1957.5" height="1215" isRotated="1" as="geometry" />
        </mxCell>
        <mxCell id="GJ76FNxvmAw6E44nZwrg-2" value="Hotline (interne)" style="swimlane;html=1;whiteSpace=wrap;connectable=0;fontStyle=0;startSize=30;dropTarget=0;rounded=0;horizontal=0;swimlaneLine=0;fillColor=none;spacing=0;strokeColor=#5e5e5e;strokeOpacity=100;strokeWidth=2.3;container=1;pointerEvents=0;collapsible=0;recursiveResize=0;fontSize=16.7;fontColor=#333333;align=center;" vertex="1" parent="GJ76FNxvmAw6E44nZwrg-1">
          <mxGeometry x="30" width="1927.5" height="390" as="geometry" />
        </mxCell>
        <mxCell id="GJ76FNxvmAw6E44nZwrg-3" value="Client (externe)" style="swimlane;html=1;whiteSpace=wrap;connectable=0;fontStyle=0;startSize=30;dropTarget=0;rounded=0;horizontal=0;swimlaneLine=0;fillColor=none;spacing=0;strokeColor=#5e5e5e;strokeOpacity=100;strokeWidth=2.3;container=1;pointerEvents=0;collapsible=0;recursiveResize=0;fontSize=16.7;fontColor=#333333;align=center;" vertex="1" parent="GJ76FNxvmAw6E44nZwrg-1">
          <mxGeometry x="30" y="390" width="1927.5" height="420" as="geometry" />
        </mxCell>
        <mxCell id="GJ76FNxvmAw6E44nZwrg-4" value="Service de maintenance (interne)" style="swimlane;html=1;whiteSpace=wrap;connectable=0;fontStyle=0;startSize=30;dropTarget=0;rounded=0;horizontal=0;swimlaneLine=0;fillColor=none;spacing=0;strokeColor=#5e5e5e;strokeOpacity=100;strokeWidth=2.3;container=1;pointerEvents=0;collapsible=0;recursiveResize=0;fontSize=16.7;fontColor=#333333;align=center;" vertex="1" parent="GJ76FNxvmAw6E44nZwrg-1">
          <mxGeometry x="30" y="810" width="1927.5" height="405" as="geometry" />
        </mxCell>
        <mxCell id="GJ76FNxvmAw6E44nZwrg-5" value="Appel client" style="html=1;overflow=block;blockSpacing=1;whiteSpace=wrap;shape=mxgraph.bpmn.shape;verticalLabelPosition=bottom;verticalAlign=top;outline=standard;fontSize=16.7;fontColor=#333333;align=center;spacing=0;strokeColor=#5e5e5e;strokeOpacity=100;rounded=1;absoluteArcSize=1;arcSize=9;strokeWidth=2.3;" vertex="1" parent="1">
          <mxGeometry x="180" y="-75" width="45" height="45" as="geometry" />
        </mxCell>
        <mxCell id="GJ76FNxvmAw6E44nZwrg-6" value="Matériel réparé" style="html=1;overflow=block;blockSpacing=1;whiteSpace=wrap;shape=mxgraph.bpmn.shape;verticalLabelPosition=bottom;verticalAlign=top;outline=throwing;fontSize=16.7;fontColor=#333333;align=center;spacing=0;strokeColor=#5e5e5e;strokeOpacity=100;rounded=1;absoluteArcSize=1;arcSize=9;strokeWidth=2.3;" vertex="1" parent="1">
          <mxGeometry x="1680" y="195" width="45" height="45" as="geometry" />
        </mxCell>
        <mxCell id="GJ76FNxvmAw6E44nZwrg-7" value="Matériel non réparé" style="html=1;overflow=block;blockSpacing=1;whiteSpace=wrap;shape=mxgraph.bpmn.shape;verticalLabelPosition=bottom;verticalAlign=top;outline=throwing;fontSize=16.7;fontColor=#333333;align=center;spacing=0;strokeColor=#5e5e5e;strokeOpacity=100;rounded=1;absoluteArcSize=1;arcSize=9;strokeWidth=2.3;" vertex="1" parent="1">
          <mxGeometry x="1680" y="465" width="45" height="45" as="geometry" />
        </mxCell>
        <mxCell id="GJ76FNxvmAw6E44nZwrg-8" value="Matériel deffectueux" style="html=1;overflow=block;blockSpacing=1;whiteSpace=wrap;shape=mxgraph.bpmn.shape;verticalLabelPosition=bottom;verticalAlign=top;outline=standard;fontSize=16.7;fontColor=#333333;align=center;spacing=0;strokeColor=#5e5e5e;strokeOpacity=100;rounded=1;absoluteArcSize=1;arcSize=9;strokeWidth=2.3;" vertex="1" parent="1">
          <mxGeometry x="180" y="338" width="45" height="45" as="geometry" />
        </mxCell>
        <mxCell id="GJ76FNxvmAw6E44nZwrg-9" value="Appel vers le SAV" style="html=1;overflow=block;blockSpacing=1;whiteSpace=wrap;fontSize=13;spacing=3.8;strokeColor=#5e5e5e;strokeOpacity=100;rounded=1;absoluteArcSize=1;arcSize=9;strokeWidth=2.3;" vertex="1" parent="1">
          <mxGeometry x="330" y="315" width="120" height="90" as="geometry" />
        </mxCell>
        <mxCell id="GJ76FNxvmAw6E44nZwrg-10" value="" style="html=1;jettySize=18;whiteSpace=wrap;fontSize=13;strokeColor=#5E5E5E;strokeWidth=1.5;rounded=1;arcSize=12;edgeStyle=orthogonalEdgeStyle;startArrow=none;endArrow=block;endFill=1;exitX=1.025;exitY=0.5;exitPerimeter=0;entryX=-0.009;entryY=0.5;entryPerimeter=0;lucidId=6lbS3MnDKC8a;" edge="1" parent="1" source="GJ76FNxvmAw6E44nZwrg-8" target="GJ76FNxvmAw6E44nZwrg-9">
          <mxGeometry width="100" height="100" relative="1" as="geometry">
            <Array as="points" />
          </mxGeometry>
        </mxCell>
        <mxCell id="GJ76FNxvmAw6E44nZwrg-11" value="" style="html=1;jettySize=18;whiteSpace=wrap;fontSize=13;strokeColor=#5E5E5E;strokeWidth=1.5;rounded=1;arcSize=12;edgeStyle=orthogonalEdgeStyle;startArrow=none;endArrow=block;endFill=1;exitX=0.5;exitY=-0.012;exitPerimeter=0;entryX=0.5;entryY=1.025;entryPerimeter=0;lucidId=_lbShBt~~IaP;" edge="1" parent="1" source="GJ76FNxvmAw6E44nZwrg-9" target="GJ76FNxvmAw6E44nZwrg-5">
          <mxGeometry width="100" height="100" relative="1" as="geometry">
            <Array as="points" />
          </mxGeometry>
        </mxCell>
        <mxCell id="GJ76FNxvmAw6E44nZwrg-12" value="Suivi de la procédure P4" style="html=1;overflow=block;blockSpacing=1;whiteSpace=wrap;fontSize=13;spacing=3.8;strokeColor=#5e5e5e;strokeOpacity=100;rounded=1;absoluteArcSize=1;arcSize=9;strokeWidth=2.3;" vertex="1" parent="1">
          <mxGeometry x="330" y="-97" width="120" height="90" as="geometry" />
        </mxCell>
        <mxCell id="GJ76FNxvmAw6E44nZwrg-13" value="" style="html=1;jettySize=18;whiteSpace=wrap;fontSize=13;strokeColor=#5E5E5E;strokeWidth=1.5;rounded=1;arcSize=12;edgeStyle=orthogonalEdgeStyle;startArrow=none;endArrow=block;endFill=1;exitX=1.025;exitY=0.5;exitPerimeter=0;entryX=-0.009;entryY=0.5;entryPerimeter=0;lucidId=wmbSbe.m9Zz-;" edge="1" parent="1" source="GJ76FNxvmAw6E44nZwrg-5" target="GJ76FNxvmAw6E44nZwrg-12">
          <mxGeometry width="100" height="100" relative="1" as="geometry">
            <Array as="points" />
          </mxGeometry>
        </mxCell>
        <mxCell id="GJ76FNxvmAw6E44nZwrg-14" value="Matériel sous garanti" style="html=1;overflow=block;blockSpacing=1;shape=mxgraph.bpmn.shape;perimeter=rhombusPerimeter;background=gateway;verticalLabelPosition=bottom;verticalAlign=top;outline=none;symbol=general;strokeColor=#5e5e5e;strokeOpacity=100;rounded=1;absoluteArcSize=1;arcSize=9;strokeWidth=2.3;whiteSpace=wrap;fontSize=16.7;fontColor=#333333;align=center;spacing=0;" vertex="1" parent="1">
          <mxGeometry x="779" y="-81" width="56" height="56" as="geometry" />
        </mxCell>
        <mxCell id="GJ76FNxvmAw6E44nZwrg-15" value="Suivi de la procédure D4" style="html=1;overflow=block;blockSpacing=1;whiteSpace=wrap;fontSize=13;spacing=3.8;strokeColor=#5e5e5e;strokeOpacity=100;rounded=1;absoluteArcSize=1;arcSize=9;strokeWidth=2.3;" vertex="1" parent="1">
          <mxGeometry x="940" y="-97" width="120" height="90" as="geometry" />
        </mxCell>
        <mxCell id="GJ76FNxvmAw6E44nZwrg-16" value="" style="html=1;jettySize=18;whiteSpace=wrap;fontSize=13;strokeColor=#5E5E5E;strokeWidth=1.5;rounded=1;arcSize=12;edgeStyle=orthogonalEdgeStyle;startArrow=none;endArrow=block;endFill=1;exitX=0.5;exitY=1.028;exitPerimeter=0;entryX=0.5;entryY=-0.025;entryPerimeter=0;lucidId=qnbS0~fYX3b4;" edge="1" parent="1" source="GJ76FNxvmAw6E44nZwrg-14" target="GJ76FNxvmAw6E44nZwrg-7">
          <mxGeometry width="100" height="100" relative="1" as="geometry">
            <Array as="points">
              <mxPoint x="853" y="128" />
              <mxPoint x="1808" y="128" />
              <mxPoint x="1808" y="447" />
              <mxPoint x="1703" y="447" />
            </Array>
          </mxGeometry>
        </mxCell>
        <mxCell id="GJ76FNxvmAw6E44nZwrg-17" value="Non" style="text;html=1;resizable=0;labelBackgroundColor=default;align=center;verticalAlign=middle;fontStyle=1;fontColor=#333333;fontSize=13.3;" vertex="1" parent="GJ76FNxvmAw6E44nZwrg-16">
          <mxGeometry x="-0.6003278044151844" relative="1" as="geometry" />
        </mxCell>
        <mxCell id="GJ76FNxvmAw6E44nZwrg-18" value="" style="html=1;jettySize=18;whiteSpace=wrap;fontSize=13;strokeColor=#5E5E5E;strokeWidth=1.5;rounded=1;arcSize=12;edgeStyle=orthogonalEdgeStyle;startArrow=none;endArrow=block;endFill=1;exitX=1.028;exitY=0.5;exitPerimeter=0;entryX=-0.009;entryY=0.5;entryPerimeter=0;lucidId=KnbSWCPCctOc;" edge="1" parent="1" source="GJ76FNxvmAw6E44nZwrg-14" target="GJ76FNxvmAw6E44nZwrg-15">
          <mxGeometry width="100" height="100" relative="1" as="geometry">
            <Array as="points" />
          </mxGeometry>
        </mxCell>
        <mxCell id="GJ76FNxvmAw6E44nZwrg-19" value="Oui" style="text;html=1;resizable=0;labelBackgroundColor=default;align=center;verticalAlign=middle;fontStyle=1;fontColor=#333333;fontSize=13.3;" vertex="1" parent="GJ76FNxvmAw6E44nZwrg-18">
          <mxGeometry relative="1" as="geometry" />
        </mxCell>
        <mxCell id="GJ76FNxvmAw6E44nZwrg-20" value="Indique la date de garantie" style="html=1;overflow=block;blockSpacing=1;whiteSpace=wrap;fontSize=13;spacing=3.8;strokeColor=#5e5e5e;strokeOpacity=100;rounded=1;absoluteArcSize=1;arcSize=9;strokeWidth=2.3;" vertex="1" parent="1">
          <mxGeometry x="555" y="-97" width="120" height="90" as="geometry" />
        </mxCell>
        <mxCell id="GJ76FNxvmAw6E44nZwrg-21" value="" style="html=1;jettySize=18;whiteSpace=wrap;fontSize=13;strokeColor=#5E5E5E;strokeWidth=1.5;rounded=1;arcSize=12;edgeStyle=orthogonalEdgeStyle;startArrow=none;endArrow=block;endFill=1;exitX=1.009;exitY=0.5;exitPerimeter=0;entryX=-0.009;entryY=0.5;entryPerimeter=0;lucidId=oobSob9LHV8A;" edge="1" parent="1" source="GJ76FNxvmAw6E44nZwrg-12" target="GJ76FNxvmAw6E44nZwrg-20">
          <mxGeometry width="100" height="100" relative="1" as="geometry">
            <Array as="points" />
          </mxGeometry>
        </mxCell>
        <mxCell id="GJ76FNxvmAw6E44nZwrg-22" value="Première réponse du SAV" style="html=1;overflow=block;blockSpacing=1;whiteSpace=wrap;fontSize=13;spacing=3.8;strokeColor=#5e5e5e;strokeOpacity=100;rounded=1;absoluteArcSize=1;arcSize=9;strokeWidth=2.3;" vertex="1" parent="1">
          <mxGeometry x="555" y="315" width="120" height="90" as="geometry" />
        </mxCell>
        <mxCell id="GJ76FNxvmAw6E44nZwrg-23" value="" style="html=1;jettySize=18;whiteSpace=wrap;fontSize=13;strokeColor=#5E5E5E;strokeWidth=1.5;rounded=1;arcSize=12;edgeStyle=orthogonalEdgeStyle;startArrow=none;endArrow=block;endFill=1;exitX=1.009;exitY=0.5;exitPerimeter=0;entryX=-0.009;entryY=0.5;entryPerimeter=0;lucidId=KobSYkvEAMGF;" edge="1" parent="1" source="GJ76FNxvmAw6E44nZwrg-9" target="GJ76FNxvmAw6E44nZwrg-22">
          <mxGeometry width="100" height="100" relative="1" as="geometry">
            <Array as="points" />
          </mxGeometry>
        </mxCell>
        <mxCell id="GJ76FNxvmAw6E44nZwrg-24" value="" style="html=1;jettySize=18;whiteSpace=wrap;fontSize=13;strokeColor=#5E5E5E;strokeWidth=1.5;rounded=1;arcSize=12;edgeStyle=orthogonalEdgeStyle;startArrow=none;endArrow=block;endFill=1;exitX=0.5;exitY=1.012;exitPerimeter=0;entryX=0.5;entryY=-0.012;entryPerimeter=0;lucidId=2obSBt8gbsO1;" edge="1" parent="1" source="GJ76FNxvmAw6E44nZwrg-20" target="GJ76FNxvmAw6E44nZwrg-22">
          <mxGeometry width="100" height="100" relative="1" as="geometry">
            <Array as="points" />
          </mxGeometry>
        </mxCell>
        <mxCell id="GJ76FNxvmAw6E44nZwrg-25" value="" style="html=1;jettySize=18;whiteSpace=wrap;fontSize=13;strokeColor=#5E5E5E;strokeWidth=1.5;rounded=1;arcSize=12;edgeStyle=orthogonalEdgeStyle;startArrow=none;endArrow=block;endFill=1;exitX=1.009;exitY=0.5;exitPerimeter=0;entryX=-0.028;entryY=0.5;entryPerimeter=0;lucidId=kpbSt8hJ0QST;" edge="1" parent="1" source="GJ76FNxvmAw6E44nZwrg-20" target="GJ76FNxvmAw6E44nZwrg-14">
          <mxGeometry width="100" height="100" relative="1" as="geometry">
            <Array as="points" />
          </mxGeometry>
        </mxCell>
        <mxCell id="GJ76FNxvmAw6E44nZwrg-26" value="Tentative de réparation" style="html=1;overflow=block;blockSpacing=1;shape=mxgraph.bpmn.shape;perimeter=rhombusPerimeter;background=gateway;verticalLabelPosition=bottom;verticalAlign=top;outline=none;symbol=general;strokeColor=#5e5e5e;strokeOpacity=100;rounded=1;absoluteArcSize=1;arcSize=9;strokeWidth=2.3;whiteSpace=wrap;fontSize=16.7;fontColor=#333333;align=center;spacing=0;" vertex="1" parent="1">
          <mxGeometry x="780" y="330" width="56" height="56" as="geometry" />
        </mxCell>
        <mxCell id="GJ76FNxvmAw6E44nZwrg-27" value="" style="html=1;jettySize=18;whiteSpace=wrap;fontSize=13;strokeColor=#5E5E5E;strokeWidth=1.5;rounded=1;arcSize=12;edgeStyle=orthogonalEdgeStyle;startArrow=none;endArrow=block;endFill=1;exitX=0.5;exitY=1.028;exitPerimeter=0;entryX=-0.025;entryY=0.5;entryPerimeter=0;lucidId=8pbSl2vV_Hyd;" edge="1" parent="1" source="GJ76FNxvmAw6E44nZwrg-26" target="GJ76FNxvmAw6E44nZwrg-7">
          <mxGeometry width="100" height="100" relative="1" as="geometry">
            <Array as="points" />
          </mxGeometry>
        </mxCell>
        <mxCell id="GJ76FNxvmAw6E44nZwrg-28" value="Non" style="text;html=1;resizable=0;labelBackgroundColor=default;align=center;verticalAlign=middle;fontStyle=1;fontColor=#333333;fontSize=13.3;" vertex="1" parent="GJ76FNxvmAw6E44nZwrg-27">
          <mxGeometry x="-0.14152835196126234" relative="1" as="geometry" />
        </mxCell>
        <mxCell id="GJ76FNxvmAw6E44nZwrg-29" value="" style="html=1;jettySize=18;whiteSpace=wrap;fontSize=13;strokeColor=#5E5E5E;strokeWidth=1.5;rounded=1;arcSize=12;edgeStyle=orthogonalEdgeStyle;startArrow=none;endArrow=block;endFill=1;exitX=1.009;exitY=0.5;exitPerimeter=0;entryX=0.005;entryY=0.533;entryPerimeter=0;lucidId=~pbSmgIcuJMA;" edge="1" parent="1" source="GJ76FNxvmAw6E44nZwrg-22" target="GJ76FNxvmAw6E44nZwrg-26">
          <mxGeometry width="100" height="100" relative="1" as="geometry">
            <Array as="points" />
          </mxGeometry>
        </mxCell>
        <mxCell id="GJ76FNxvmAw6E44nZwrg-30" value="Procédure D4 effective" style="html=1;overflow=block;blockSpacing=1;shape=mxgraph.bpmn.shape;perimeter=rhombusPerimeter;background=gateway;verticalLabelPosition=bottom;verticalAlign=top;outline=none;symbol=general;strokeColor=#5e5e5e;strokeOpacity=100;rounded=1;absoluteArcSize=1;arcSize=9;strokeWidth=2.3;whiteSpace=wrap;fontSize=16.7;fontColor=#333333;align=center;spacing=0;" vertex="1" parent="1">
          <mxGeometry x="1165" y="-81" width="56" height="56" as="geometry" />
        </mxCell>
        <mxCell id="GJ76FNxvmAw6E44nZwrg-31" value="" style="html=1;jettySize=18;whiteSpace=wrap;fontSize=13;strokeColor=#5E5E5E;strokeWidth=1.5;rounded=1;arcSize=12;edgeStyle=orthogonalEdgeStyle;startArrow=none;endArrow=block;endFill=1;exitX=0.5;exitY=1.028;exitPerimeter=0;entryX=0.5;entryY=-0.025;entryPerimeter=0;lucidId=HrbSvaJ-P0S1;" edge="1" parent="1" source="GJ76FNxvmAw6E44nZwrg-30" target="GJ76FNxvmAw6E44nZwrg-6">
          <mxGeometry width="100" height="100" relative="1" as="geometry">
            <Array as="points" />
          </mxGeometry>
        </mxCell>
        <mxCell id="GJ76FNxvmAw6E44nZwrg-32" value="Oui" style="text;html=1;resizable=0;labelBackgroundColor=default;align=center;verticalAlign=middle;fontStyle=1;fontColor=#333333;fontSize=13.3;" vertex="1" parent="GJ76FNxvmAw6E44nZwrg-31">
          <mxGeometry relative="1" as="geometry" />
        </mxCell>
        <mxCell id="GJ76FNxvmAw6E44nZwrg-33" value="" style="html=1;jettySize=18;whiteSpace=wrap;fontSize=13;strokeColor=#5E5E5E;strokeWidth=1.5;rounded=1;arcSize=12;edgeStyle=orthogonalEdgeStyle;startArrow=none;endArrow=block;endFill=1;exitX=1.009;exitY=0.5;exitPerimeter=0;entryX=-0.028;entryY=0.5;entryPerimeter=0;lucidId=MrbSSx4Dz1t5;" edge="1" parent="1" source="GJ76FNxvmAw6E44nZwrg-15" target="GJ76FNxvmAw6E44nZwrg-30">
          <mxGeometry width="100" height="100" relative="1" as="geometry">
            <Array as="points" />
          </mxGeometry>
        </mxCell>
        <mxCell id="GJ76FNxvmAw6E44nZwrg-34" value="Complétion d&#39;un bon de prise en charge SAV" style="html=1;overflow=block;blockSpacing=1;whiteSpace=wrap;fontSize=13;spacing=3.8;strokeColor=#5e5e5e;strokeOpacity=100;rounded=1;absoluteArcSize=1;arcSize=9;strokeWidth=2.3;" vertex="1" parent="1">
          <mxGeometry x="1326" y="-97" width="120" height="90" as="geometry" />
        </mxCell>
        <mxCell id="GJ76FNxvmAw6E44nZwrg-35" value="" style="html=1;jettySize=18;whiteSpace=wrap;fontSize=13;strokeColor=#5E5E5E;strokeWidth=1.5;rounded=1;arcSize=12;edgeStyle=orthogonalEdgeStyle;startArrow=none;endArrow=block;endFill=1;exitX=1.028;exitY=0.5;exitPerimeter=0;entryX=-0.009;entryY=0.5;entryPerimeter=0;lucidId=3rbSXwTmLXks;" edge="1" parent="1" source="GJ76FNxvmAw6E44nZwrg-30" target="GJ76FNxvmAw6E44nZwrg-34">
          <mxGeometry width="100" height="100" relative="1" as="geometry">
            <Array as="points" />
          </mxGeometry>
        </mxCell>
        <mxCell id="GJ76FNxvmAw6E44nZwrg-36" value="Transmission du bon par mail au client" style="html=1;overflow=block;blockSpacing=1;whiteSpace=wrap;fontSize=13;spacing=3.8;strokeColor=#5e5e5e;strokeOpacity=100;rounded=1;absoluteArcSize=1;arcSize=9;strokeWidth=2.3;" vertex="1" parent="1">
          <mxGeometry x="1551" y="-97" width="120" height="90" as="geometry" />
        </mxCell>
        <mxCell id="GJ76FNxvmAw6E44nZwrg-37" value="" style="html=1;jettySize=18;whiteSpace=wrap;fontSize=13;strokeColor=#5E5E5E;strokeWidth=1.5;rounded=1;arcSize=12;edgeStyle=orthogonalEdgeStyle;startArrow=none;endArrow=block;endFill=1;exitX=1.009;exitY=0.5;exitPerimeter=0;entryX=-0.009;entryY=0.5;entryPerimeter=0;lucidId=NsbS2H3uDy3F;" edge="1" parent="1" source="GJ76FNxvmAw6E44nZwrg-34" target="GJ76FNxvmAw6E44nZwrg-36">
          <mxGeometry width="100" height="100" relative="1" as="geometry">
            <Array as="points" />
          </mxGeometry>
        </mxCell>
        <mxCell id="GJ76FNxvmAw6E44nZwrg-38" value="Aide téléphonique de la hotline" style="html=1;overflow=block;blockSpacing=1;whiteSpace=wrap;fontSize=13;spacing=3.8;strokeColor=#5e5e5e;strokeOpacity=100;rounded=1;absoluteArcSize=1;arcSize=9;strokeWidth=2.3;" vertex="1" parent="1">
          <mxGeometry x="941" y="313" width="120" height="90" as="geometry" />
        </mxCell>
        <mxCell id="GJ76FNxvmAw6E44nZwrg-39" value="" style="html=1;jettySize=18;whiteSpace=wrap;fontSize=13;strokeColor=#5E5E5E;strokeWidth=1.5;rounded=1;arcSize=12;edgeStyle=orthogonalEdgeStyle;startArrow=none;endArrow=block;endFill=1;exitX=1.028;exitY=0.5;exitPerimeter=0;entryX=-0.009;entryY=0.5;entryPerimeter=0;lucidId=BtbSnaCFP-XN;" edge="1" parent="1" source="GJ76FNxvmAw6E44nZwrg-26" target="GJ76FNxvmAw6E44nZwrg-38">
          <mxGeometry width="100" height="100" relative="1" as="geometry">
            <Array as="points" />
          </mxGeometry>
        </mxCell>
        <mxCell id="GJ76FNxvmAw6E44nZwrg-40" value="Aide reçu de la hotline" style="html=1;overflow=block;blockSpacing=1;shape=mxgraph.bpmn.shape;perimeter=rhombusPerimeter;background=gateway;verticalLabelPosition=bottom;verticalAlign=top;outline=none;symbol=general;strokeColor=#5e5e5e;strokeOpacity=100;rounded=1;absoluteArcSize=1;arcSize=9;strokeWidth=2.3;whiteSpace=wrap;fontSize=16.7;fontColor=#333333;align=center;spacing=0;" vertex="1" parent="1">
          <mxGeometry x="1165" y="330" width="56" height="56" as="geometry" />
        </mxCell>
        <mxCell id="GJ76FNxvmAw6E44nZwrg-41" value="" style="html=1;jettySize=18;whiteSpace=wrap;fontSize=13;strokeColor=#5E5E5E;strokeWidth=1.5;rounded=1;arcSize=12;edgeStyle=orthogonalEdgeStyle;startArrow=none;endArrow=block;endFill=1;exitX=1.009;exitY=0.5;exitPerimeter=0;entryX=-0.028;entryY=0.5;entryPerimeter=0;lucidId=LtbS00tfWT6a;" edge="1" parent="1" source="GJ76FNxvmAw6E44nZwrg-38" target="GJ76FNxvmAw6E44nZwrg-40">
          <mxGeometry width="100" height="100" relative="1" as="geometry">
            <Array as="points" />
          </mxGeometry>
        </mxCell>
        <mxCell id="GJ76FNxvmAw6E44nZwrg-42" value="" style="html=1;jettySize=18;whiteSpace=wrap;fontSize=13;strokeColor=#5E5E5E;strokeWidth=1.5;rounded=1;arcSize=12;edgeStyle=orthogonalEdgeStyle;startArrow=none;endArrow=block;endFill=1;exitX=0.5;exitY=-0.028;exitPerimeter=0;entryX=-0.025;entryY=0.5;entryPerimeter=0;lucidId=9tbSacGWm95g;" edge="1" parent="1" source="GJ76FNxvmAw6E44nZwrg-40" target="GJ76FNxvmAw6E44nZwrg-6">
          <mxGeometry width="100" height="100" relative="1" as="geometry">
            <Array as="points" />
          </mxGeometry>
        </mxCell>
        <mxCell id="GJ76FNxvmAw6E44nZwrg-43" value="Succès" style="text;html=1;resizable=0;labelBackgroundColor=default;align=center;verticalAlign=middle;fontStyle=1;fontColor=#333333;fontSize=13.3;" vertex="1" parent="GJ76FNxvmAw6E44nZwrg-42">
          <mxGeometry relative="1" as="geometry" />
        </mxCell>
        <mxCell id="GJ76FNxvmAw6E44nZwrg-44" value="Réception du bon de prise en charge SAV" style="html=1;overflow=block;blockSpacing=1;whiteSpace=wrap;fontSize=13;spacing=3.8;strokeColor=#5e5e5e;strokeOpacity=100;rounded=1;absoluteArcSize=1;arcSize=9;strokeWidth=2.3;" vertex="1" parent="1">
          <mxGeometry x="1326" y="313" width="120" height="90" as="geometry" />
        </mxCell>
        <mxCell id="GJ76FNxvmAw6E44nZwrg-45" value="" style="html=1;jettySize=18;whiteSpace=wrap;fontSize=13;strokeColor=#5E5E5E;strokeWidth=1.5;rounded=1;arcSize=12;edgeStyle=orthogonalEdgeStyle;startArrow=none;endArrow=block;endFill=1;exitX=1.028;exitY=0.5;exitPerimeter=0;entryX=-0.009;entryY=0.5;entryPerimeter=0;lucidId=pubSlsunwu_d;" edge="1" parent="1" source="GJ76FNxvmAw6E44nZwrg-40" target="GJ76FNxvmAw6E44nZwrg-44">
          <mxGeometry width="100" height="100" relative="1" as="geometry">
            <Array as="points" />
          </mxGeometry>
        </mxCell>
        <mxCell id="GJ76FNxvmAw6E44nZwrg-46" value="Echec" style="text;html=1;resizable=0;labelBackgroundColor=default;align=center;verticalAlign=middle;fontStyle=1;fontColor=#333333;fontSize=13.3;" vertex="1" parent="GJ76FNxvmAw6E44nZwrg-45">
          <mxGeometry relative="1" as="geometry" />
        </mxCell>
        <mxCell id="GJ76FNxvmAw6E44nZwrg-47" value="Réception du diagnostique réalisé par la Hotline" style="html=1;overflow=block;blockSpacing=1;whiteSpace=wrap;shape=mxgraph.bpmn.shape;verticalLabelPosition=bottom;verticalAlign=top;outline=standard;fontSize=16.7;fontColor=#333333;align=center;spacing=0;strokeColor=#5e5e5e;strokeOpacity=100;rounded=1;absoluteArcSize=1;arcSize=9;strokeWidth=2.3;" vertex="1" parent="1">
          <mxGeometry x="180" y="660" width="45" height="45" as="geometry" />
        </mxCell>
        <mxCell id="GJ76FNxvmAw6E44nZwrg-48" value="Transmission du diagnostique au service de maintenance" style="html=1;overflow=block;blockSpacing=1;whiteSpace=wrap;fontSize=13;spacing=3.8;strokeColor=#5e5e5e;strokeOpacity=100;rounded=1;absoluteArcSize=1;arcSize=9;strokeWidth=2.3;" vertex="1" parent="1">
          <mxGeometry x="1776" y="-97" width="120" height="90" as="geometry" />
        </mxCell>
        <mxCell id="GJ76FNxvmAw6E44nZwrg-49" value="" style="html=1;jettySize=18;whiteSpace=wrap;fontSize=13;strokeColor=#5E5E5E;strokeWidth=1.5;rounded=1;arcSize=12;edgeStyle=orthogonalEdgeStyle;startArrow=none;endArrow=block;endFill=1;exitX=1.009;exitY=0.5;exitPerimeter=0;entryX=-0.009;entryY=0.5;entryPerimeter=0;lucidId=mvbSHBTKZO2S;" edge="1" parent="1" source="GJ76FNxvmAw6E44nZwrg-36" target="GJ76FNxvmAw6E44nZwrg-48">
          <mxGeometry width="100" height="100" relative="1" as="geometry">
            <Array as="points" />
          </mxGeometry>
        </mxCell>
        <mxCell id="GJ76FNxvmAw6E44nZwrg-50" value="" style="html=1;jettySize=18;whiteSpace=wrap;fontSize=13;strokeColor=#5E5E5E;strokeWidth=1.5;rounded=1;arcSize=12;edgeStyle=orthogonalEdgeStyle;startArrow=none;endArrow=block;endFill=1;exitX=1.009;exitY=0.5;exitPerimeter=0;entryX=0.5;entryY=-0.025;entryPerimeter=0;lucidId=BvbSgX2_yFJ8;" edge="1" parent="1" source="GJ76FNxvmAw6E44nZwrg-48" target="GJ76FNxvmAw6E44nZwrg-47">
          <mxGeometry width="100" height="100" relative="1" as="geometry">
            <Array as="points">
              <mxPoint x="2160" y="-52" />
              <mxPoint x="2160" y="615" />
              <mxPoint x="203" y="615" />
            </Array>
          </mxGeometry>
        </mxCell>
        <mxCell id="GJ76FNxvmAw6E44nZwrg-51" value="Envoie du matériel au service de maintenance avec le bon de prise en charge" style="html=1;overflow=block;blockSpacing=1;whiteSpace=wrap;fontSize=13;spacing=3.8;strokeColor=#5e5e5e;strokeOpacity=100;rounded=1;absoluteArcSize=1;arcSize=9;strokeWidth=2.3;" vertex="1" parent="1">
          <mxGeometry x="1551" y="313" width="122" height="91" as="geometry" />
        </mxCell>
        <mxCell id="GJ76FNxvmAw6E44nZwrg-52" value="" style="html=1;jettySize=18;whiteSpace=wrap;fontSize=13;strokeColor=#5E5E5E;strokeWidth=1.5;rounded=1;arcSize=12;edgeStyle=orthogonalEdgeStyle;startArrow=none;endArrow=block;endFill=1;exitX=1.009;exitY=0.5;exitPerimeter=0;entryX=-0.009;entryY=0.492;entryPerimeter=0;lucidId=NxbSKtL0imM-;" edge="1" parent="1" source="GJ76FNxvmAw6E44nZwrg-44" target="GJ76FNxvmAw6E44nZwrg-51">
          <mxGeometry width="100" height="100" relative="1" as="geometry">
            <Array as="points" />
          </mxGeometry>
        </mxCell>
        <mxCell id="GJ76FNxvmAw6E44nZwrg-53" value="Réception du matériel" style="html=1;overflow=block;blockSpacing=1;whiteSpace=wrap;fontSize=13;spacing=3.8;strokeColor=#5e5e5e;strokeOpacity=100;rounded=1;absoluteArcSize=1;arcSize=9;strokeWidth=2.3;" vertex="1" parent="1">
          <mxGeometry x="330" y="638" width="120" height="90" as="geometry" />
        </mxCell>
        <mxCell id="GJ76FNxvmAw6E44nZwrg-54" value="" style="html=1;jettySize=18;whiteSpace=wrap;fontSize=13;strokeColor=#5E5E5E;strokeWidth=1.5;rounded=1;arcSize=12;edgeStyle=orthogonalEdgeStyle;startArrow=none;endArrow=block;endFill=1;exitX=1.025;exitY=0.5;exitPerimeter=0;entryX=-0.009;entryY=0.5;entryPerimeter=0;lucidId=.xbSjDoVmaHB;" edge="1" parent="1" source="GJ76FNxvmAw6E44nZwrg-47" target="GJ76FNxvmAw6E44nZwrg-53">
          <mxGeometry width="100" height="100" relative="1" as="geometry">
            <Array as="points" />
          </mxGeometry>
        </mxCell>
        <mxCell id="GJ76FNxvmAw6E44nZwrg-55" value="Renvoie du matériel au client avec notification de reçu" style="html=1;overflow=block;blockSpacing=1;whiteSpace=wrap;fontSize=13;spacing=3.8;strokeColor=#5e5e5e;strokeOpacity=100;rounded=1;absoluteArcSize=1;arcSize=9;strokeWidth=2.3;" vertex="1" parent="1">
          <mxGeometry x="735" y="638" width="120" height="90" as="geometry" />
        </mxCell>
        <mxCell id="GJ76FNxvmAw6E44nZwrg-56" value="Vérification de la présence du bon de prise en charge" style="html=1;overflow=block;blockSpacing=1;shape=mxgraph.bpmn.shape;perimeter=rhombusPerimeter;background=gateway;verticalLabelPosition=bottom;verticalAlign=top;outline=none;symbol=general;strokeColor=#5e5e5e;strokeOpacity=100;rounded=1;absoluteArcSize=1;arcSize=9;strokeWidth=2.3;whiteSpace=wrap;fontSize=16.7;fontColor=#333333;align=center;spacing=0;" vertex="1" parent="1">
          <mxGeometry x="555" y="654" width="56" height="56" as="geometry" />
        </mxCell>
        <mxCell id="GJ76FNxvmAw6E44nZwrg-57" value="" style="html=1;jettySize=18;whiteSpace=wrap;fontSize=13;strokeColor=#5E5E5E;strokeWidth=1.5;rounded=1;arcSize=12;edgeStyle=orthogonalEdgeStyle;startArrow=none;endArrow=block;endFill=1;exitX=1.009;exitY=0.5;exitPerimeter=0;entryX=-0.028;entryY=0.5;entryPerimeter=0;lucidId=RybS5SP3qPm9;" edge="1" parent="1" source="GJ76FNxvmAw6E44nZwrg-53" target="GJ76FNxvmAw6E44nZwrg-56">
          <mxGeometry width="100" height="100" relative="1" as="geometry">
            <Array as="points" />
          </mxGeometry>
        </mxCell>
        <mxCell id="GJ76FNxvmAw6E44nZwrg-58" value="" style="html=1;jettySize=18;whiteSpace=wrap;fontSize=13;strokeColor=#5E5E5E;strokeWidth=1.5;rounded=1;arcSize=12;edgeStyle=orthogonalEdgeStyle;startArrow=none;endArrow=block;endFill=1;exitX=0.5;exitY=-0.028;exitPerimeter=0;entryX=-0.009;entryY=0.5;entryPerimeter=0;lucidId=.ybSEJlY61l8;" edge="1" parent="1" source="GJ76FNxvmAw6E44nZwrg-56" target="GJ76FNxvmAw6E44nZwrg-55">
          <mxGeometry width="100" height="100" relative="1" as="geometry">
            <Array as="points" />
          </mxGeometry>
        </mxCell>
        <mxCell id="GJ76FNxvmAw6E44nZwrg-59" value="Non" style="text;html=1;resizable=0;labelBackgroundColor=default;align=center;verticalAlign=middle;fontStyle=1;fontColor=#333333;fontSize=13.3;" vertex="1" parent="GJ76FNxvmAw6E44nZwrg-58">
          <mxGeometry relative="1" as="geometry" />
        </mxCell>
        <mxCell id="GJ76FNxvmAw6E44nZwrg-60" value="Comparaison entre le bon et le matériel" style="html=1;overflow=block;blockSpacing=1;shape=mxgraph.bpmn.shape;perimeter=rhombusPerimeter;background=gateway;verticalLabelPosition=bottom;verticalAlign=top;outline=none;symbol=general;strokeColor=#5e5e5e;strokeOpacity=100;rounded=1;absoluteArcSize=1;arcSize=9;strokeWidth=2.3;whiteSpace=wrap;fontSize=16.7;fontColor=#333333;align=center;spacing=0;" vertex="1" parent="1">
          <mxGeometry x="767" y="780" width="56" height="56" as="geometry" />
        </mxCell>
        <mxCell id="GJ76FNxvmAw6E44nZwrg-61" value="" style="html=1;jettySize=18;whiteSpace=wrap;fontSize=13;strokeColor=#5E5E5E;strokeWidth=1.5;rounded=1;arcSize=12;edgeStyle=orthogonalEdgeStyle;startArrow=none;endArrow=block;endFill=1;exitX=1.028;exitY=0.5;exitPerimeter=0;entryX=0.017;entryY=0.455;entryPerimeter=0;lucidId=OAbSeGJ.r2eZ;" edge="1" parent="1" source="GJ76FNxvmAw6E44nZwrg-56" target="GJ76FNxvmAw6E44nZwrg-60">
          <mxGeometry width="100" height="100" relative="1" as="geometry">
            <Array as="points">
              <mxPoint x="660" y="683" />
              <mxPoint x="660" y="788" />
              <mxPoint x="736" y="788" />
            </Array>
          </mxGeometry>
        </mxCell>
        <mxCell id="GJ76FNxvmAw6E44nZwrg-62" value="Oui" style="text;html=1;resizable=0;labelBackgroundColor=default;align=center;verticalAlign=middle;fontStyle=1;fontColor=#333333;fontSize=13.3;" vertex="1" parent="GJ76FNxvmAw6E44nZwrg-61">
          <mxGeometry x="-0.223917674917551" relative="1" as="geometry" />
        </mxCell>
        <mxCell id="GJ76FNxvmAw6E44nZwrg-63" value="" style="html=1;jettySize=18;whiteSpace=wrap;fontSize=13;strokeColor=#5E5E5E;strokeWidth=1.5;rounded=1;arcSize=12;edgeStyle=orthogonalEdgeStyle;startArrow=none;endArrow=block;endFill=1;exitX=0.5;exitY=-0.028;exitPerimeter=0;entryX=0.5;entryY=1.012;entryPerimeter=0;lucidId=~AbS_en426lL;" edge="1" parent="1" source="GJ76FNxvmAw6E44nZwrg-60" target="GJ76FNxvmAw6E44nZwrg-55">
          <mxGeometry width="100" height="100" relative="1" as="geometry">
            <Array as="points" />
          </mxGeometry>
        </mxCell>
        <mxCell id="GJ76FNxvmAw6E44nZwrg-64" value="Mauvaise concordance" style="text;html=1;resizable=0;labelBackgroundColor=default;align=center;verticalAlign=middle;fontStyle=1;fontColor=#333333;fontSize=13.3;" vertex="1" parent="GJ76FNxvmAw6E44nZwrg-63">
          <mxGeometry relative="1" as="geometry" />
        </mxCell>
        <mxCell id="GJ76FNxvmAw6E44nZwrg-65" value="" style="html=1;jettySize=18;whiteSpace=wrap;fontSize=13;strokeColor=#5E5E5E;strokeWidth=1.5;rounded=1;arcSize=12;edgeStyle=orthogonalEdgeStyle;startArrow=none;endArrow=block;endFill=1;exitX=1.009;exitY=0.5;exitPerimeter=0;entryX=-0.025;entryY=0.5;entryPerimeter=0;lucidId=LBbSfs5s4CK_;" edge="1" parent="1" source="GJ76FNxvmAw6E44nZwrg-55" target="GJ76FNxvmAw6E44nZwrg-7">
          <mxGeometry width="100" height="100" relative="1" as="geometry">
            <Array as="points" />
          </mxGeometry>
        </mxCell>
        <mxCell id="GJ76FNxvmAw6E44nZwrg-66" value="Complétion du diagnostique" style="html=1;overflow=block;blockSpacing=1;whiteSpace=wrap;fontSize=13;spacing=3.8;strokeColor=#5e5e5e;strokeOpacity=100;rounded=1;absoluteArcSize=1;arcSize=9;strokeWidth=2.3;" vertex="1" parent="1">
          <mxGeometry x="916" y="763" width="120" height="90" as="geometry" />
        </mxCell>
        <mxCell id="GJ76FNxvmAw6E44nZwrg-67" value="" style="html=1;jettySize=18;whiteSpace=wrap;fontSize=13;strokeColor=#5E5E5E;strokeWidth=1.5;rounded=1;arcSize=12;edgeStyle=orthogonalEdgeStyle;startArrow=none;endArrow=block;endFill=1;exitX=1.028;exitY=0.5;exitPerimeter=0;entryX=-0.009;entryY=0.5;entryPerimeter=0;lucidId=eCbSA9DfDDRv;" edge="1" parent="1" source="GJ76FNxvmAw6E44nZwrg-60" target="GJ76FNxvmAw6E44nZwrg-66">
          <mxGeometry width="100" height="100" relative="1" as="geometry">
            <Array as="points" />
          </mxGeometry>
        </mxCell>
        <mxCell id="GJ76FNxvmAw6E44nZwrg-68" value="Prise en charge du matériel" style="html=1;overflow=block;blockSpacing=1;shape=mxgraph.bpmn.shape;perimeter=rhombusPerimeter;background=gateway;verticalLabelPosition=bottom;verticalAlign=top;outline=none;symbol=general;strokeColor=#5e5e5e;strokeOpacity=100;rounded=1;absoluteArcSize=1;arcSize=9;strokeWidth=2.3;whiteSpace=wrap;fontSize=16.7;fontColor=#333333;align=center;spacing=0;" vertex="1" parent="1">
          <mxGeometry x="1140" y="780" width="56" height="56" as="geometry" />
        </mxCell>
        <mxCell id="GJ76FNxvmAw6E44nZwrg-69" value="" style="html=1;jettySize=18;whiteSpace=wrap;fontSize=13;strokeColor=#5E5E5E;strokeWidth=1.5;rounded=1;arcSize=12;edgeStyle=orthogonalEdgeStyle;startArrow=none;endArrow=block;endFill=1;exitX=1.009;exitY=0.5;exitPerimeter=0;entryX=-0.028;entryY=0.5;entryPerimeter=0;lucidId=uCbSjdQF3YZ1;" edge="1" parent="1" source="GJ76FNxvmAw6E44nZwrg-66" target="GJ76FNxvmAw6E44nZwrg-68">
          <mxGeometry width="100" height="100" relative="1" as="geometry">
            <Array as="points" />
          </mxGeometry>
        </mxCell>
        <mxCell id="GJ76FNxvmAw6E44nZwrg-70" value="Envoie de matériel neuf au client" style="html=1;overflow=block;blockSpacing=1;whiteSpace=wrap;fontSize=13;spacing=3.8;strokeColor=#5e5e5e;strokeOpacity=100;rounded=1;absoluteArcSize=1;arcSize=9;strokeWidth=2.3;" vertex="1" parent="1">
          <mxGeometry x="1305" y="690" width="120" height="90" as="geometry" />
        </mxCell>
        <mxCell id="GJ76FNxvmAw6E44nZwrg-71" value="" style="html=1;jettySize=18;whiteSpace=wrap;fontSize=13;strokeColor=#5E5E5E;strokeWidth=1.5;rounded=1;arcSize=12;edgeStyle=orthogonalEdgeStyle;startArrow=none;endArrow=block;endFill=1;exitX=0.5;exitY=-0.028;exitPerimeter=0;entryX=-0.009;entryY=0.5;entryPerimeter=0;lucidId=UDbSaZPN_kcJ;" edge="1" parent="1" source="GJ76FNxvmAw6E44nZwrg-68" target="GJ76FNxvmAw6E44nZwrg-70">
          <mxGeometry width="100" height="100" relative="1" as="geometry">
            <Array as="points" />
          </mxGeometry>
        </mxCell>
        <mxCell id="GJ76FNxvmAw6E44nZwrg-72" value="Non" style="text;html=1;resizable=0;labelBackgroundColor=default;align=center;verticalAlign=middle;fontStyle=1;fontColor=#333333;fontSize=13.3;" vertex="1" parent="GJ76FNxvmAw6E44nZwrg-71">
          <mxGeometry x="0.13066028538691654" relative="1" as="geometry" />
        </mxCell>
        <mxCell id="GJ76FNxvmAw6E44nZwrg-73" value="Matériel réparé" style="html=1;overflow=block;blockSpacing=1;whiteSpace=wrap;fontSize=13;spacing=3.8;strokeColor=#5e5e5e;strokeOpacity=100;rounded=1;absoluteArcSize=1;arcSize=9;strokeWidth=2.3;" vertex="1" parent="1">
          <mxGeometry x="1305" y="836" width="120" height="90" as="geometry" />
        </mxCell>
      </root>
    </mxGraphModel>
  </diagram>
</mxfile>
